<svg aria-hidden="true" style="width:0;height:0;position:absolute;overflow:hidden" xmlns="http://www.w3.org/2000/svg"><defs><symbol id="email" viewBox="0 0 32 32"><path d="M28 5.333H4a4 4 0 0 0-4 4v16a4 4 0 0 0 4 4h24a4 4 0 0 0 4-4v-16a4 4 0 0 0-4-4zM2.667 13.096l7.911 5.037-7.911 6.777zm10.201 6.583c.02-.017.028-.043.048-.061l1.652 1.052a2.675 2.675 0 0 0 2.875-.006l-.011.006 1.653-1.052c.019.019.027.044.048.061l8.152 6.988H4.716zm16.465 5.232-7.911-6.777 7.911-5.037zM4 8h24c.736 0 1.333.597 1.333 1.333v.601L16 18.418 2.667 9.934v-.601C2.667 8.597 3.264 8 4 8z"/></symbol><symbol id="user" viewBox="0 0 32 32"><path d="M31.6 27.077c-.994-4.229-3.571-7.73-7.056-9.916l-.066-.039a10.592 10.592 0 0 0 2.194-6.48c0-5.891-4.776-10.667-10.667-10.667S5.338 4.751 5.338 10.642c0 2.449.825 4.705 2.212 6.505l-.018-.025c-3.555 2.222-6.134 5.723-7.104 9.846l-.021.107a3.997 3.997 0 0 0 .782 3.422l-.006-.008a3.965 3.965 0 0 0 3.115 1.509h23.404a3.962 3.962 0 0 0 3.109-1.501l.006-.008a3.987 3.987 0 0 0 .885-2.513c0-.319-.037-.63-.108-.927l.005.027zM16 2.667a8 8 0 1 1-8 8 8.01 8.01 0 0 1 8-8zm12.732 26.164a1.31 1.31 0 0 1-1.031.503H4.3c-.418 0-.789-.195-1.029-.5l-.002-.003a1.362 1.362 0 0 1-.265-1.169l-.002.009c.874-3.723 3.231-6.778 6.399-8.562l.066-.034c1.783 1.409 4.063 2.26 6.542 2.26s4.759-.851 6.564-2.277l-.022.017c3.227 1.825 5.578 4.879 6.433 8.51l.018.09a1.363 1.363 0 0 1-.271 1.159l.002-.003z"/></symbol><symbol id="password" viewBox="0 0 32 32"><path d="M24 10.667V8A8 8 0 0 0 8 8v2.667a4 4 0 0 0-4 4V24a8.01 8.01 0 0 0 8 8h8a8.01 8.01 0 0 0 8-8v-9.334a4 4 0 0 0-4-4zM10.667 8a5.333 5.333 0 1 1 10.666 0v2.667H10.666zm14.666 16A5.333 5.333 0 0 1 20 29.333h-8A5.333 5.333 0 0 1 6.667 24v-9.333c0-.736.597-1.333 1.333-1.333h16c.736 0 1.333.597 1.333 1.333z"/><path d="M16 18.667c-.736 0-1.333.597-1.333 1.333v2.667a1.333 1.333 0 0 0 2.666 0V20c0-.736-.597-1.333-1.333-1.333z"/></symbol></defs></svg>