<svg aria-hidden="true" style="position: absolute; width: 0; height: 0; overflow: hidden;" version="1.1" xmlns="http://www.w3.org/2000/svg" xmlns:xlink="http://www.w3.org/1999/xlink">
<defs>
<symbol id="email" viewBox="0 0 32 32">
<path d="M28 5.333h-24c-2.209 0-4 1.791-4 4v0 16c0 2.209 1.791 4 4 4v0h24c2.209 0 4-1.791 4-4v0-16c0-2.209-1.791-4-4-4v0zM2.667 13.096l7.911 5.037-7.911 6.777zM12.868 19.679c0.020-0.017 0.028-0.043 0.048-0.061l1.652 1.052c0.406 0.26 0.901 0.415 1.432 0.415s1.026-0.155 1.443-0.421l-0.011 0.006 1.653-1.052c0.019 0.019 0.027 0.044 0.048 0.061l8.152 6.988h-22.569zM29.333 24.911l-7.911-6.777 7.911-5.037zM4 8h24c0.736 0 1.333 0.597 1.333 1.333v0 0.601l-13.333 8.484-13.333-8.484v-0.601c0-0.736 0.597-1.333 1.333-1.333v0z"></path>
</symbol>
<symbol id="user" viewBox="0 0 32 32">
<path d="M31.6 27.077c-0.994-4.229-3.571-7.73-7.056-9.916l-0.066-0.039c1.369-1.775 2.194-4.031 2.194-6.48 0-5.891-4.776-10.667-10.667-10.667s-10.667 4.776-10.667 10.667c0 2.449 0.825 4.705 2.212 6.505l-0.018-0.025c-3.555 2.222-6.134 5.723-7.104 9.846l-0.021 0.107c-0.066 0.273-0.104 0.585-0.104 0.907 0 0.952 0.332 1.827 0.886 2.515l-0.006-0.008c0.733 0.923 1.856 1.509 3.115 1.509 0.003 0 0.006 0 0.009 0h23.386c0.003 0 0.006 0 0.009 0 1.259 0 2.382-0.586 3.109-1.501l0.006-0.008c0.551-0.681 0.885-1.558 0.885-2.513 0-0.319-0.037-0.63-0.108-0.927l0.005 0.027zM16 2.667c4.418 0 8 3.582 8 8s-3.582 8-8 8c-4.418 0-8-3.582-8-8v0c0.005-4.416 3.584-7.995 8-8h0zM28.732 28.831c-0.242 0.307-0.614 0.503-1.031 0.503-0.003 0-0.005 0-0.008-0h-23.386c-0.002 0-0.005 0-0.007 0-0.418 0-0.789-0.195-1.029-0.5l-0.002-0.003c-0.187-0.232-0.301-0.531-0.301-0.856 0-0.108 0.012-0.213 0.036-0.313l-0.002 0.009c0.874-3.723 3.231-6.778 6.399-8.562l0.066-0.034c1.783 1.409 4.063 2.26 6.542 2.26s4.759-0.851 6.564-2.277l-0.022 0.017c3.227 1.825 5.578 4.879 6.433 8.51l0.018 0.090c0.021 0.090 0.033 0.193 0.033 0.299 0 0.326-0.114 0.625-0.304 0.86l0.002-0.003z"></path>
</symbol>
<symbol id="password" viewBox="0 0 32 32">
<path d="M24 10.667v-2.667c0-4.418-3.582-8-8-8s-8 3.582-8 8v0 2.667c-2.209 0-4 1.791-4 4v0 9.333c0.005 4.416 3.584 7.995 8 8h8c4.416-0.005 7.995-3.584 8-8v-9.334c0-2.209-1.791-4-4-4v0zM10.667 8c0-2.946 2.388-5.333 5.333-5.333s5.333 2.388 5.333 5.333v0 2.667h-10.667zM25.333 24c0 2.946-2.388 5.333-5.333 5.333v0h-8c-2.946 0-5.333-2.388-5.333-5.333v0-9.333c0-0.736 0.597-1.333 1.333-1.333v0h16c0.736 0 1.333 0.597 1.333 1.333v0z"></path>
<path d="M16 18.667c-0.736 0-1.333 0.597-1.333 1.333v0 2.667c0 0.736 0.597 1.333 1.333 1.333s1.333-0.597 1.333-1.333v0-2.667c0-0.736-0.597-1.333-1.333-1.333v0z"></path>
</symbol>
</defs>
</svg>
